# xmcd CD database file
#
# Track frame offsets:
#	150
#	13533
#	29623
#	42679
#	59096
#	77655
#	91494
#	106017
#	120879
#	135838
#	150982
#	163963
#	181208
#	195546
#	208710
#
# Disc length: 2986 seconds
#
# Revision: 0
# Processed by: cddbd v1.5.2PL0 Copyright (c) Steve Scherf et al.
# Submitted via: CDex 1.94
#
DISCID=be0ba80f
DTITLE=Truck Stop - Weites Land CD1
DYEAR=2015
DGENRE=Country
TTITLE0=Der wilde, wilde Westen (Neuaufnahme)
TTITLE1=Ich moechte so gern Dave Dudley hoern (Neuaufnahme)
TTITLE2=Die Cowboys der Nation
TTITLE3=Freunde findest Du tief unten
TTITLE4=Route 66
TTITLE5=Rocky Mountains
TTITLE6=Die rechte Hand des Teufels
TTITLE7=Emmylou, Emmylou
TTITLE8=All das mag ich - Dich brauch ich
TTITLE9=Banditos der Liebe
TTITLE10=Heiss wie Chili
TTITLE11=Deine Sorgen moecht ich haben
TTITLE12=Country Boy
TTITLE13=Unsre Herzen (schlagen fuer den Wilden Westen)
TTITLE14=Truck Stop and The Bellamy Brothers - Hello, Lady Harley
EXTD=YEAR: 2015
EXTT0=
EXTT1=
EXTT2=
EXTT3=
EXTT4=
EXTT5=
EXTT6=
EXTT7=
EXTT8=
EXTT9=
EXTT10=
EXTT11=
EXTT12=
EXTT13=
EXTT14=
PLAYORDER=
